<?xml version="1.0" standalone="no"?>
<!DOCTYPE svg PUBLIC "-//W3C//DTD SVG 20010904//EN"
 "http://www.w3.org/TR/2001/REC-SVG-20010904/DTD/svg10.dtd">
<svg version="1.0" xmlns="http://www.w3.org/2000/svg"
 width="512.000000pt" height="512.000000pt" viewBox="0 0 512.000000 512.000000"
 preserveAspectRatio="xMidYMid meet">
<metadata>
Created by potrace 1.11, written by Peter Selinger 2001-2013
</metadata>
<g transform="translate(0.000000,512.000000) scale(0.100000,-0.100000)"
fill="#000000" stroke="none">
<path d="M202 5027 c-49 -18 -100 -74 -113 -121 -24 -88 8 -220 91 -373 39
-73 39 -73 24 -115 -103 -285 -17 -630 209 -841 213 -199 536 -268 805 -173
l42 15 76 -41 c180 -97 337 -123 414 -68 48 34 67 58 80 105 23 83 -8 217 -85
363 l-44 82 15 43 c103 290 17 630 -214 844 -212 196 -532 264 -799 169 -42
-15 -42 -15 -126 29 -153 79 -298 111 -375 82z m137 -158 c24 -5 68 -21 98
-34 l53 -25 -42 -37 c-47 -42 -100 -97 -121 -127 -14 -19 -16 -18 -36 22 -29
56 -54 158 -47 188 7 27 25 30 95 13z m811 -98 c231 -79 395 -262 438 -491 4
-19 6 -82 6 -140 0 -87 -5 -118 -27 -178 -47 -135 -128 -245 -235 -319 l-60
-43 -78 57 c-257 183 -592 521 -754 760 -44 63 -44 59 24 144 85 107 227 195
361 224 90 20 246 13 325 -14z m-717 -608 c154 -192 391 -424 604 -590 l52
-41 -32 -5 c-18 -3 -75 -4 -127 -2 -283 9 -528 213 -594 495 -18 78 -19 260 0
260 1 0 45 -53 97 -117z m1212 -550 c15 -39 28 -90 29 -118 l1 -50 -50 2 c-49
1 -145 31 -178 56 -15 11 -11 17 36 55 28 24 68 63 86 87 19 24 38 42 42 39 4
-2 19 -34 34 -71z"/>
<path d="M960 4560 c0 -73 2 -80 20 -81 11 -1 23 -2 28 -3 4 -1 23 -6 42 -10
119 -29 223 -159 229 -288 1 -16 12 -18 82 -18 l81 0 -7 55 c-22 195 -167 359
-360 410 -33 8 -72 15 -87 15 l-28 0 0 -80z"/>
<path d="M4610 4985 c-423 -135 -542 -175 -655 -220 -129 -51 -441 -201 -540
-259 -33 -20 -67 -39 -75 -43 -48 -22 -439 -288 -460 -313 -3 -3 -32 -28 -65
-54 -33 -27 -94 -78 -135 -114 -122 -107 -887 -875 -985 -989 -110 -127 -106
-124 -152 -129 -137 -16 -304 -50 -413 -86 -89 -28 -249 -96 -282 -119 -14
-11 -29 -19 -32 -19 -12 0 -90 -53 -159 -108 -162 -128 -282 -287 -341 -451
-15 -41 -25 -75 -24 -76 2 -1 57 -5 123 -8 127 -6 215 -27 310 -74 59 -30 161
-101 192 -135 l22 -23 -27 -69 c-27 -68 -27 -68 -223 -231 -109 -90 -216 -187
-240 -217 -81 -102 -124 -226 -128 -370 l-2 -78 62 0 62 0 -114 -118 c-63 -64
-131 -144 -151 -177 -58 -96 -90 -203 -96 -324 l-5 -104 104 5 c199 10 322 71
502 246 l117 115 0 -63 0 -63 93 6 c123 7 170 19 258 63 84 42 147 103 313
302 164 197 166 198 233 224 l68 27 23 -22 c34 -31 105 -133 135 -192 47 -95
68 -183 74 -310 3 -66 7 -121 8 -123 5 -5 149 51 194 75 57 32 134 87 181 130
19 17 44 40 55 50 78 70 183 220 255 363 70 140 141 380 164 558 13 92 18 127
19 127 4 1 127 104 172 145 116 104 848 840 938 943 132 152 123 141 222 270
132 173 295 436 404 655 126 251 203 450 331 862 29 91 63 198 76 239 13 40
24 87 24 103 0 85 -47 165 -121 203 -67 35 -120 30 -309 -30z m250 -125 c11
-11 20 -26 20 -33 0 -7 -21 -78 -46 -158 -25 -79 -54 -171 -64 -204 -66 -219
-158 -475 -172 -475 -21 0 -142 62 -211 108 -153 104 -269 234 -351 396 -25
50 -46 95 -46 101 0 19 180 83 600 214 91 29 174 56 185 61 33 15 64 11 85
-10z m-991 -395 c77 -173 239 -370 393 -478 58 -42 227 -135 267 -148 10 -4
-3 -39 -53 -138 -171 -342 -351 -610 -607 -906 -139 -160 -931 -941 -1073
-1059 -109 -89 -348 -265 -374 -274 -4 -1 -60 51 -125 116 l-117 117 53 95
c30 52 67 120 84 150 36 67 77 140 182 330 l81 145 -82 82 -81 82 -31 -16
c-17 -9 -107 -59 -201 -111 -93 -52 -195 -109 -225 -125 -30 -17 -102 -57
-160 -89 l-105 -58 -119 119 -119 119 65 93 c201 287 265 359 788 882 428 428
601 586 765 702 39 27 72 52 75 55 12 13 262 171 345 218 86 48 325 170 335
171 3 1 20 -33 39 -74z m-2485 -1872 c-99 -144 -204 -323 -294 -499 -44 -87
-82 -159 -84 -161 -2 -2 -34 19 -71 47 -102 77 -258 147 -363 163 -19 3 -36 8
-39 11 -9 9 61 101 133 172 120 119 283 218 472 285 77 27 264 76 300 78 7 1
-17 -43 -54 -96z m958 -275 c-17 -29 -77 -138 -135 -243 -58 -104 -118 -213
-133 -242 -16 -28 -31 -53 -34 -55 -3 -1 -51 8 -108 21 l-103 25 -14 50 c-8
28 -21 77 -28 108 l-15 57 157 87 c86 48 176 98 201 112 156 87 235 131 238
132 2 0 -10 -24 -26 -52z m-852 -163 l115 -115 45 -172 45 -173 173 -45 172
-45 115 -115 c63 -63 115 -117 115 -120 0 -3 -70 -43 -156 -89 l-156 -84 -380
381 -381 380 84 156 c46 86 86 156 89 156 3 0 57 -52 120 -115z m-18 -699
l328 -331 -89 -36 -88 -37 -286 287 -285 286 35 83 c19 45 40 81 46 80 7 0
159 -150 339 -332z m-467 -16 l40 -41 -186 -184 c-192 -191 -242 -227 -335
-242 -35 -6 -36 -5 -29 18 13 46 65 144 93 174 15 17 95 86 177 155 83 68 159
132 169 142 11 10 23 18 26 18 3 0 24 -18 45 -40z m1680 -21 c-45 -254 -148
-499 -279 -664 -69 -88 -238 -238 -250 -223 -2 1 -11 34 -20 73 -32 129 -89
242 -191 381 -16 21 -13 23 142 101 183 92 332 180 488 286 61 42 111 76 113
76 1 1 0 -13 -3 -30z m-1460 -199 l60 -60 -415 -415 c-380 -379 -421 -418
-485 -449 -75 -36 -135 -54 -135 -38 0 19 41 126 61 161 20 33 836 861 849
861 3 0 32 -27 65 -60z m219 -219 l39 -40 -144 -172 c-79 -95 -157 -185 -174
-201 -37 -34 -129 -84 -172 -93 l-32 -6 15 53 c9 29 25 71 36 93 18 35 372
405 388 405 3 0 23 -18 44 -39z"/>
<path d="M4426 4535 c-14 -15 -26 -36 -26 -46 0 -62 55 -102 110 -79 78 32 62
133 -22 147 -31 5 -40 1 -62 -22z"/>
<path d="M3210 3981 c-302 -79 -496 -337 -486 -646 9 -266 177 -492 431 -580
73 -25 109 -30 220 -30 171 1 310 60 435 185 124 123 188 277 188 449 1 288
-193 541 -473 618 -90 25 -227 27 -315 4z m264 -157 c305 -75 454 -415 304
-695 -53 -101 -156 -187 -268 -224 -63 -21 -187 -28 -251 -14 -77 17 -168 66
-228 124 -199 190 -199 501 1 691 118 113 284 157 442 118z"/>
<path d="M3260 3663 c-140 -48 -222 -169 -216 -319 5 -119 72 -221 181 -274
41 -20 65 -24 135 -24 70 0 94 4 135 24 63 31 123 91 155 155 35 70 35 196 0
270 -30 62 -94 125 -156 155 -62 29 -170 35 -234 13z m189 -171 c50 -37 66
-70 66 -131 -1 -48 -6 -65 -27 -93 -105 -138 -315 -42 -283 128 7 41 49 92 90
111 39 17 121 10 154 -15z"/>
<path d="M2238 3098 c-143 -144 -271 -277 -285 -295 l-24 -32 42 -38 c23 -21
49 -43 57 -49 13 -9 65 40 301 279 l286 289 -54 54 c-30 30 -56 54 -58 54 -2
0 -121 -118 -265 -262z"/>
<path d="M1825 2652 c-16 -20 -44 -56 -62 -79 l-31 -41 21 -19 c12 -11 40 -33
63 -51 l41 -31 39 52 c21 29 49 63 62 77 l23 25 -29 25 c-68 60 -92 80 -94 80
-2 0 -16 -17 -33 -38z"/>
<path d="M2954 2319 l-57 -57 57 -56 58 -56 54 56 55 56 -55 57 -55 58 -57
-58z"/>
<path d="M2723 2096 l-53 -51 53 -59 53 -59 60 56 59 56 -55 55 c-30 31 -57
56 -60 55 -3 -1 -29 -24 -57 -53z"/>
<path d="M2485 1898 c-27 -22 -49 -46 -49 -53 2 -16 76 -115 87 -115 5 0 35
21 67 46 l59 46 -47 59 c-26 32 -51 59 -57 59 -5 -1 -32 -19 -60 -42z"/>
<path d="M4735 1825 c-33 -9 -109 -39 -167 -68 l-107 -53 -58 18 c-87 27 -137
33 -258 32 -239 -1 -433 -92 -593 -278 -180 -207 -240 -519 -149 -772 l15 -41
-53 -107 c-100 -199 -109 -341 -27 -422 78 -79 220 -68 417 30 l105 53 83 -25
c108 -33 304 -37 411 -8 258 69 454 245 558 501 56 140 59 361 5 533 -13 43
-13 44 40 150 64 129 87 215 80 293 -6 69 -44 130 -94 154 -49 23 -136 27
-208 10z m141 -186 c1 -41 -21 -120 -48 -173 l-20 -39 -25 31 c-30 39 -73 82
-119 121 l-36 29 33 18 c57 29 142 54 179 51 33 -3 35 -5 36 -38z m-526 -69
c136 -46 241 -120 320 -227 56 -78 59 -65 -37 -191 -100 -132 -164 -204 -313
-353 -163 -163 -248 -237 -404 -349 l-68 -50 -60 42 c-161 113 -256 292 -264
493 -12 321 199 587 519 655 70 15 235 4 307 -20z m445 -630 c-4 -172 -61
-305 -185 -430 -121 -120 -259 -181 -420 -186 -52 -1 -110 0 -127 3 l-33 5 38
29 c20 16 42 32 47 36 130 101 363 323 486 463 70 80 74 85 140 169 53 68 58
60 54 -89z m-1204 -539 c16 -17 46 -43 65 -60 l37 -29 -40 -20 c-56 -29 -147
-54 -180 -49 -23 3 -28 9 -29 33 -1 44 14 103 42 164 l25 55 25 -33 c14 -17
38 -45 55 -61z"/>
<path d="M4021 1417 c-180 -53 -315 -214 -336 -402 l-7 -55 81 0 c78 0 81 1
81 23 0 33 29 117 53 152 57 84 153 140 250 144 15 1 17 12 17 81 l0 81 -37
-2 c-21 -2 -67 -11 -102 -22z"/>
</g>
</svg>
